<?xml version="1.0" encoding="UTF-8" standalone="no"?>
<svg
   id="Vrstva_1"
   data-name="Vrstva 1"
   viewBox="0 0 276.94 276.91"
   version="1.1"
   sodipodi:docname="geoarrow_logo.svg"
   width="276.94"
   height="276.91"
   inkscape:version="1.2.1 (9c6d41e, 2022-07-14)"
   inkscape:export-filename="geoarrow_logo.png"
   inkscape:export-xdpi="177.48248"
   inkscape:export-ydpi="177.48248"
   xmlns:inkscape="http://www.inkscape.org/namespaces/inkscape"
   xmlns:sodipodi="http://sodipodi.sourceforge.net/DTD/sodipodi-0.dtd"
   xmlns="http://www.w3.org/2000/svg"
   xmlns:svg="http://www.w3.org/2000/svg">
  <sodipodi:namedview
     id="namedview37"
     pagecolor="#ffffff"
     bordercolor="#000000"
     borderopacity="0.25"
     inkscape:showpageshadow="2"
     inkscape:pageopacity="0.0"
     inkscape:pagecheckerboard="0"
     inkscape:deskcolor="#d1d1d1"
     showgrid="false"
     showguides="true"
     inkscape:zoom="1"
     inkscape:cx="75.5"
     inkscape:cy="126.5"
     inkscape:window-width="1390"
     inkscape:window-height="955"
     inkscape:window-x="142"
     inkscape:window-y="25"
     inkscape:window-maximized="0"
     inkscape:current-layer="Vrstva_1" />
  <defs
     id="defs4">
    <style
       id="style2">.cls-1{fill:#fec905;}.cls-2{fill:#e21c84;}.cls-3{fill:#0f9c5a;}</style>
  </defs>
  <path
     id="path347"
     style="fill:#000000"
     d="M 138.4707 0 A 138.47 138.455 0 0 0 0 138.45508 A 138.47 138.455 0 0 0 138.4707 276.91016 A 138.47 138.455 0 0 0 276.93945 138.45508 A 138.47 138.455 0 0 0 138.4707 0 z M 138.29883 25.003906 A 113.42059 113.43827 0 0 1 251.71875 138.44141 A 113.42059 113.43827 0 0 1 138.29883 251.88086 A 113.42059 113.43827 0 0 1 24.878906 138.44141 A 113.42059 113.43827 0 0 1 138.29883 25.003906 z " />
  <g
     id="g9466">
    <g
       id="g487"
       transform="matrix(0.13050319,0,0,0.13050319,135.26122,114.27031)">
      <polygon
         points="590.62,590.62 168.75,1012.5 168.75,843.75 421.88,590.62 168.75,337.5 168.75,168.75 "
         style="fill:#000000;stroke:#000000;stroke-width:1.07;stroke-linecap:round;stroke-linejoin:round;stroke-miterlimit:10"
         id="polygon440"
         transform="matrix(1.3333333,0,0,1.3333333,-783.46255,-602.18055)" />
      <polygon
         points="885.94,590.62 464.06,1012.5 464.06,843.75 717.19,590.62 464.06,337.5 464.06,168.75 "
         style="fill:#000000;stroke:#000000;stroke-width:1.07;stroke-linecap:round;stroke-linejoin:round;stroke-miterlimit:10"
         id="polygon442"
         transform="matrix(1.3333333,0,0,1.3333333,-783.46255,-602.18055)" />
      <polygon
         points="1181.25,590.62 759.38,1012.5 759.38,843.75 1012.5,590.62 759.38,337.5 759.38,168.75 "
         style="fill:#000000;stroke:#000000;stroke-width:1.07;stroke-linecap:round;stroke-linejoin:round;stroke-miterlimit:10"
         id="polygon444"
         transform="matrix(1.3333333,0,0,1.3333333,-783.46255,-602.18055)" />
    </g>
    <path
       style="color:#000000;fill:#000000;-inkscape-stroke:none"
       d="m 205.11809,30.057135 c -19.97558,13.179598 -43.37311,20.21924 -67.30468,20.251953 -23.42612,-0.0042 -46.358461,-6.723529 -66.082037,-19.363281 l -4.316406,6.734375 c 21.010936,13.46475 45.443303,20.624449 70.398443,20.628906 h 0.002 0.004 c 25.49571,-0.03363 50.42399,-7.535223 71.70507,-21.576172 z"
       id="path508" />
    <path
       style="color:#000000;fill:#000000;-inkscape-stroke:none"
       d="m 205.11809,246.9242 c -19.97558,-13.1796 -43.37311,-20.21924 -67.30468,-20.25195 -23.42612,0.004 -46.358463,6.72353 -66.082039,19.36328 l -4.316406,-6.73438 C 88.425901,225.8364 112.85827,218.6767 137.81341,218.67225 h 0.002 0.004 c 25.49571,0.0336 50.42399,7.53522 71.70507,21.57617 z"
       id="path508-3" />
  </g>
</svg>
